<svg xmlns="http://www.w3.org/2000/svg" xmlns:xlink="http://www.w3.org/1999/xlink" width="205" zoomAndPan="magnify" viewBox="0 0 153.75 30.000001" height="40" preserveAspectRatio="xMidYMid meet" version="1.0">
  <defs>
    <g/>
    <clipPath id="c7328822ad">
      <path d="M 2.359375 0 L 151.148438 0 L 151.148438 29.03125 L 2.359375 29.03125 Z M 2.359375 0 " clip-rule="nonzero"/>
    </clipPath>
  </defs>
  <g clip-path="url(#c7328822ad)">
    <!-- Eliminado el relleno blanco de fondo -->
  </g>
  <g fill="#ef5d39" fill-opacity="1">
    <g transform="translate(2.358868, 19.596776)">
      <g>
        <path d="M 1.265625 -11.28125 L 5.734375 -11.28125 C 6.566406 -11.28125 7.335938 -11.132812 8.046875 -10.84375 C 8.765625 -10.5625 9.382812 -10.171875 9.90625 -9.671875 C 10.4375 -9.171875 10.847656 -8.578125 11.140625 -7.890625 C 11.441406 -7.203125 11.59375 -6.453125 11.59375 -5.640625 C 11.59375 -4.835938 11.441406 -4.09375 11.140625 -3.40625 C 10.847656 -2.71875 10.4375 -2.117188 9.90625 -1.609375 C 9.382812 -1.109375 8.765625 -0.710938 8.046875 -0.421875 C 7.335938 -0.140625 6.566406 0 5.734375 0 L 1.265625 0 Z M 5.75 -2.3125 C 6.21875 -2.3125 6.644531 -2.394531 7.03125 -2.5625 C 7.425781 -2.726562 7.769531 -2.957031 8.0625 -3.25 C 8.351562 -3.550781 8.582031 -3.90625 8.75 -4.3125 C 8.914062 -4.71875 9 -5.160156 9 -5.640625 C 9 -6.117188 8.914062 -6.5625 8.75 -6.96875 C 8.582031 -7.375 8.351562 -7.722656 8.0625 -8.015625 C 7.769531 -8.316406 7.425781 -8.550781 7.03125 -8.71875 C 6.644531 -8.894531 6.21875 -8.984375 5.75 -8.984375 L 3.71875 -8.984375 L 3.71875 -2.3125 Z M 5.75 -2.3125 "/>
      </g>
    </g>
  </g>
  <g fill="#ef5d39" fill-opacity="1">
    <g transform="translate(14.526648, 19.596776)">
      <g>
        <path d="M 1.265625 -11.28125 L 7.71875 -11.28125 L 7.71875 -8.984375 L 3.71875 -8.984375 L 3.71875 -6.90625 L 6.640625 -6.90625 L 6.640625 -4.59375 L 3.71875 -4.59375 L 3.71875 -2.3125 L 7.796875 -2.3125 L 7.796875 0 L 1.265625 0 Z M 1.265625 -11.28125 "/>
      </g>
    </g>
  </g>
  <g fill="#ef5d39" fill-opacity="1">
    <g transform="translate(23.160218, 19.596776)">
      <g>
        <path d="M 4.296875 0.296875 C 3.421875 0.296875 2.632812 0.101562 1.9375 -0.28125 C 1.238281 -0.675781 0.675781 -1.242188 0.25 -1.984375 L 1.96875 -3.421875 C 2.550781 -2.378906 3.320312 -1.859375 4.28125 -1.859375 C 4.707031 -1.859375 5.050781 -1.957031 5.3125 -2.15625 C 5.570312 -2.363281 5.703125 -2.640625 5.703125 -2.984375 C 5.703125 -3.296875 5.570312 -3.566406 5.3125 -3.796875 C 5.0625 -4.023438 4.597656 -4.285156 3.921875 -4.578125 C 2.878906 -5.035156 2.117188 -5.546875 1.640625 -6.109375 C 1.160156 -6.679688 0.921875 -7.363281 0.921875 -8.15625 C 0.921875 -8.644531 1.007812 -9.097656 1.1875 -9.515625 C 1.375 -9.929688 1.628906 -10.285156 1.953125 -10.578125 C 2.273438 -10.878906 2.660156 -11.109375 3.109375 -11.265625 C 3.566406 -11.429688 4.0625 -11.515625 4.59375 -11.515625 C 6.019531 -11.515625 7.226562 -10.90625 8.21875 -9.6875 L 6.578125 -8.203125 C 6.265625 -8.617188 5.953125 -8.925781 5.640625 -9.125 C 5.328125 -9.320312 4.976562 -9.421875 4.59375 -9.421875 C 4.226562 -9.421875 3.9375 -9.328125 3.71875 -9.140625 C 3.5 -8.953125 3.390625 -8.703125 3.390625 -8.390625 C 3.390625 -8.035156 3.535156 -7.742188 3.828125 -7.515625 C 4.117188 -7.296875 4.554688 -7.0625 5.140625 -6.8125 C 6.203125 -6.332031 6.972656 -5.800781 7.453125 -5.21875 C 7.929688 -4.644531 8.171875 -3.96875 8.171875 -3.1875 C 8.171875 -2.664062 8.070312 -2.191406 7.875 -1.765625 C 7.6875 -1.335938 7.421875 -0.96875 7.078125 -0.65625 C 6.742188 -0.351562 6.335938 -0.117188 5.859375 0.046875 C 5.390625 0.210938 4.867188 0.296875 4.296875 0.296875 Z M 4.296875 0.296875 "/>
      </g>
    </g>
  </g>
  <g fill="#ef5d39" fill-opacity="1">
    <g transform="translate(31.962083, 19.596776)">
      <g>
        <path d="M 1.265625 -11.28125 L 4.6875 -11.28125 C 5.289062 -11.28125 5.847656 -11.1875 6.359375 -11 C 6.867188 -10.8125 7.304688 -10.546875 7.671875 -10.203125 C 8.046875 -9.859375 8.335938 -9.453125 8.546875 -8.984375 C 8.753906 -8.515625 8.859375 -8.007812 8.859375 -7.46875 C 8.859375 -6.914062 8.753906 -6.40625 8.546875 -5.9375 C 8.335938 -5.46875 8.050781 -5.066406 7.6875 -4.734375 C 7.332031 -4.398438 6.898438 -4.132812 6.390625 -3.9375 C 5.890625 -3.75 5.347656 -3.65625 4.765625 -3.65625 L 3.71875 -3.65625 L 3.71875 0 L 1.265625 0 Z M 4.6875 -5.96875 C 5.195312 -5.96875 5.609375 -6.097656 5.921875 -6.359375 C 6.242188 -6.617188 6.40625 -6.988281 6.40625 -7.46875 C 6.40625 -7.925781 6.242188 -8.289062 5.921875 -8.5625 C 5.609375 -8.84375 5.195312 -8.984375 4.6875 -8.984375 L 3.71875 -8.984375 L 3.71875 -5.96875 Z M 4.6875 -5.96875 "/>
      </g>
    </g>
  </g>
  <g fill="#ef5d39" fill-opacity="1">
    <g transform="translate(41.487617, 19.596776)">
      <g>
        <path d="M 1.265625 -11.28125 L 3.71875 -11.28125 L 3.71875 0 L 1.265625 0 Z M 1.265625 -11.28125 "/>
      </g>
    </g>
  </g>
  <g fill="#ef5d39" fill-opacity="1">
    <g transform="translate(46.469164, 19.596776)">
      <g>
        <path d="M 1.265625 -11.28125 L 7.71875 -11.28125 L 7.71875 -8.984375 L 3.71875 -8.984375 L 3.71875 -6.90625 L 6.640625 -6.90625 L 6.640625 -4.59375 L 3.71875 -4.59375 L 3.71875 -2.3125 L 7.796875 -2.3125 L 7.796875 0 L 1.265625 0 Z M 1.265625 -11.28125 "/>
      </g>
    </g>
  </g>
  <g fill="#ef5d39" fill-opacity="1">
    <g transform="translate(55.102734, 19.596776)">
      <g>
        <path d="M 1.265625 -11.28125 L 4.796875 -11.28125 C 5.378906 -11.28125 5.921875 -11.191406 6.421875 -11.015625 C 6.921875 -10.835938 7.347656 -10.582031 7.703125 -10.25 C 8.066406 -9.925781 8.347656 -9.539062 8.546875 -9.09375 C 8.753906 -8.644531 8.859375 -8.15625 8.859375 -7.625 C 8.859375 -6.957031 8.695312 -6.347656 8.375 -5.796875 C 8.050781 -5.253906 7.601562 -4.832031 7.03125 -4.53125 L 9.671875 0 L 6.8125 0 L 4.609375 -3.953125 L 3.71875 -3.953125 L 3.71875 0 L 1.265625 0 Z M 4.6875 -6.125 C 5.207031 -6.125 5.625 -6.253906 5.9375 -6.515625 C 6.25 -6.785156 6.40625 -7.148438 6.40625 -7.609375 C 6.40625 -8.066406 6.242188 -8.410156 5.921875 -8.640625 C 5.609375 -8.867188 5.195312 -8.984375 4.6875 -8.984375 L 3.71875 -8.984375 L 3.71875 -6.125 Z M 4.6875 -6.125 "/>
      </g>
    </g>
  </g>
  <g fill="#ef5d39" fill-opacity="1">
    <g transform="translate(65.015348, 19.596776)">
      <g>
        <path d="M 3.625 -8.984375 L 0.34375 -8.984375 L 0.34375 -11.28125 L 9.359375 -11.28125 L 9.359375 -8.984375 L 6.078125 -8.984375 L 6.078125 0 L 3.625 0 Z M 3.625 -8.984375 "/>
      </g>
    </g>
  </g>
  <g fill="#ef5d39" fill-opacity="1">
    <g transform="translate(74.709177, 19.596776)">
      <g>
        <path d="M 4.609375 -11.484375 L 6.1875 -11.484375 L 10.625 0 L 8.03125 0 L 7.34375 -1.90625 L 3.453125 -1.90625 L 2.78125 0 L 0.171875 0 Z M 6.578125 -4.03125 L 5.40625 -7.34375 L 4.21875 -4.03125 Z M 6.578125 -4.03125 "/>
      </g>
    </g>
  </g>
  <g fill="#ef5d39" fill-opacity="1">
    <g transform="translate(85.496931, 19.596776)">
      <g/>
    </g>
  </g>
  <g fill="#ef5d39" fill-opacity="1">
    <g transform="translate(89.199435, 19.596776)">
      <g>
        <path d="M 3.625 -8.984375 L 0.34375 -8.984375 L 0.34375 -11.28125 L 9.359375 -11.28125 L 9.359375 -8.984375 L 6.078125 -8.984375 L 6.078125 0 L 3.625 0 Z M 3.625 -8.984375 "/>
      </g>
    </g>
  </g>
  <g fill="#ef5d39" fill-opacity="1">
    <g transform="translate(98.893263, 19.596776)">
      <g>
        <path d="M 5.78125 0.234375 C 5.101562 0.234375 4.484375 0.117188 3.921875 -0.109375 C 3.359375 -0.347656 2.875 -0.675781 2.46875 -1.09375 C 2.070312 -1.519531 1.753906 -2.023438 1.515625 -2.609375 C 1.285156 -3.203125 1.171875 -3.847656 1.171875 -4.546875 L 1.171875 -11.28125 L 3.640625 -11.28125 L 3.640625 -4.578125 C 3.640625 -3.828125 3.832031 -3.234375 4.21875 -2.796875 C 4.601562 -2.367188 5.117188 -2.15625 5.765625 -2.15625 C 6.398438 -2.15625 6.914062 -2.367188 7.3125 -2.796875 C 7.707031 -3.234375 7.90625 -3.828125 7.90625 -4.578125 L 7.90625 -11.28125 L 10.359375 -11.28125 L 10.359375 -4.546875 C 10.359375 -3.847656 10.242188 -3.203125 10.015625 -2.609375 C 9.785156 -2.023438 9.46875 -1.519531 9.0625 -1.09375 C 8.65625 -0.675781 8.171875 -0.347656 7.609375 -0.109375 C 7.046875 0.117188 6.4375 0.234375 5.78125 0.234375 Z M 5.78125 0.234375 "/>
      </g>
    </g>
  </g>
  <g fill="#ef5d39" fill-opacity="1">
    <g transform="translate(110.42151, 19.596776)">
      <g/>
    </g>
  </g>
  <g fill="#ef5d39" fill-opacity="1">
    <g transform="translate(114.124013, 19.596776)">
      <g>
        <path d="M 0.171875 -11.28125 L 2.796875 -11.28125 L 4.953125 -4.671875 L 7.578125 -11.28125 L 8.875 -11.28125 L 11.5 -4.671875 L 13.671875 -11.28125 L 16.265625 -11.28125 L 12.34375 0.203125 L 11.046875 0.203125 L 8.21875 -7.046875 L 5.40625 0.203125 L 4.109375 0.203125 Z M 0.171875 -11.28125 "/>
      </g>
    </g>
  </g>
  <g fill="#ef5d39" fill-opacity="1">
    <g transform="translate(130.54967, 19.596776)">
      <g>
        <path d="M 1.265625 -11.28125 L 7.71875 -11.28125 L 7.71875 -8.984375 L 3.71875 -8.984375 L 3.71875 -6.90625 L 6.640625 -6.90625 L 6.640625 -4.59375 L 3.71875 -4.59375 L 3.71875 -2.3125 L 7.796875 -2.3125 L 7.796875 0 L 1.265625 0 Z M 1.265625 -11.28125 "/>
      </g>
    </g>
  </g>
  <g fill="#ef5d39" fill-opacity="1">
    <g transform="translate(139.18324, 19.596776)">
      <g>
        <path d="M 1.265625 -11.28125 L 4.546875 -11.28125 C 5.117188 -11.28125 5.644531 -11.195312 6.125 -11.03125 C 6.613281 -10.875 7.03125 -10.65625 7.375 -10.375 C 7.726562 -10.09375 8 -9.757812 8.1875 -9.375 C 8.382812 -8.988281 8.484375 -8.570312 8.484375 -8.125 C 8.484375 -7.644531 8.375 -7.210938 8.15625 -6.828125 C 7.9375 -6.453125 7.632812 -6.128906 7.25 -5.859375 C 7.757812 -5.597656 8.160156 -5.242188 8.453125 -4.796875 C 8.742188 -4.347656 8.890625 -3.84375 8.890625 -3.28125 C 8.890625 -2.8125 8.785156 -2.375 8.578125 -1.96875 C 8.378906 -1.570312 8.101562 -1.222656 7.75 -0.921875 C 7.394531 -0.628906 6.96875 -0.398438 6.46875 -0.234375 C 5.976562 -0.078125 5.4375 0 4.84375 0 L 1.265625 0 Z M 4.765625 -2.015625 C 5.285156 -2.015625 5.691406 -2.132812 5.984375 -2.375 C 6.285156 -2.625 6.4375 -2.960938 6.4375 -3.390625 C 6.4375 -3.804688 6.289062 -4.128906 6 -4.359375 C 5.707031 -4.597656 5.296875 -4.71875 4.765625 -4.71875 L 3.71875 -4.71875 L 3.71875 -2.015625 Z M 4.546875 -6.734375 C 4.992188 -6.734375 5.351562 -6.847656 5.625 -7.078125 C 5.894531 -7.304688 6.03125 -7.617188 6.03125 -8.015625 C 6.03125 -8.410156 5.894531 -8.71875 5.625 -8.9375 C 5.351562 -9.15625 4.992188 -9.265625 4.546875 -9.265625 L 3.71875 -9.265625 L 3.71875 -6.734375 Z M 4.546875 -6.734375 "/>
      </g>
    </g>
  </g>
</svg>